<svg width="324" height="56" viewBox="0 0 324 56" fill="none" xmlns="http://www.w3.org/2000/svg">
<rect width="324" height="56" rx="28" fill="#292929"/>
<path d="M134.543 21.8636L137.356 30.7045H137.464L140.282 21.8636H143.009L138.998 33.5H135.827L131.81 21.8636H134.543ZM144.364 33.5V24.7727H146.785V33.5H144.364ZM145.58 23.6477C145.22 23.6477 144.912 23.5284 144.654 23.2898C144.4 23.0473 144.273 22.7576 144.273 22.4205C144.273 22.0871 144.4 21.8011 144.654 21.5625C144.912 21.3201 145.22 21.1989 145.58 21.1989C145.94 21.1989 146.247 21.3201 146.501 21.5625C146.758 21.8011 146.887 22.0871 146.887 22.4205C146.887 22.7576 146.758 23.0473 146.501 23.2898C146.247 23.5284 145.94 23.6477 145.58 23.6477ZM152.701 33.6705C151.803 33.6705 151.031 33.4886 150.383 33.125C149.739 32.7576 149.243 32.2386 148.894 31.5682C148.546 30.8939 148.371 30.0966 148.371 29.1761C148.371 28.2784 148.546 27.4905 148.894 26.8125C149.243 26.1345 149.733 25.6061 150.366 25.2273C151.002 24.8485 151.748 24.6591 152.604 24.6591C153.18 24.6591 153.716 24.7519 154.212 24.9375C154.712 25.1193 155.148 25.3939 155.519 25.7614C155.894 26.1288 156.186 26.5909 156.394 27.1477C156.603 27.7008 156.707 28.3485 156.707 29.0909V29.7557H149.337V28.2557H154.428C154.428 27.9072 154.353 27.5985 154.201 27.3295C154.049 27.0606 153.839 26.8504 153.57 26.6989C153.305 26.5436 152.996 26.4659 152.644 26.4659C152.277 26.4659 151.951 26.5511 151.667 26.7216C151.387 26.8883 151.167 27.1136 151.008 27.3977C150.849 27.678 150.767 27.9905 150.763 28.3352V29.7614C150.763 30.1932 150.843 30.5663 151.002 30.8807C151.165 31.1951 151.394 31.4375 151.69 31.608C151.985 31.7784 152.335 31.8636 152.741 31.8636C153.01 31.8636 153.256 31.8258 153.479 31.75C153.703 31.6742 153.894 31.5606 154.053 31.4091C154.212 31.2576 154.334 31.072 154.417 30.8523L156.656 31C156.542 31.5379 156.309 32.0076 155.957 32.4091C155.608 32.8068 155.157 33.1174 154.604 33.3409C154.055 33.5606 153.421 33.6705 152.701 33.6705ZM159.945 33.5L157.57 24.7727H160.019L161.371 30.6364H161.451L162.86 24.7727H165.263L166.695 30.6023H166.769L168.099 24.7727H170.542L168.173 33.5H165.61L164.11 28.0114H164.002L162.502 33.5H159.945ZM178.025 33.6648C177.468 33.6648 176.972 33.5682 176.536 33.375C176.101 33.178 175.756 32.8883 175.502 32.5057C175.252 32.1193 175.127 31.6383 175.127 31.0625C175.127 30.5777 175.216 30.1705 175.394 29.8409C175.572 29.5114 175.815 29.2462 176.121 29.0455C176.428 28.8447 176.777 28.6932 177.167 28.5909C177.561 28.4886 177.974 28.4167 178.406 28.375C178.913 28.322 179.322 28.2727 179.633 28.2273C179.943 28.178 180.169 28.1061 180.309 28.0114C180.449 27.9167 180.519 27.7765 180.519 27.5909V27.5568C180.519 27.197 180.406 26.9186 180.178 26.7216C179.955 26.5246 179.637 26.4261 179.224 26.4261C178.788 26.4261 178.442 26.5227 178.184 26.7159C177.926 26.9053 177.756 27.1439 177.673 27.4318L175.434 27.25C175.548 26.7197 175.771 26.2614 176.104 25.875C176.438 25.4848 176.868 25.1856 177.394 24.9773C177.924 24.7652 178.538 24.6591 179.235 24.6591C179.72 24.6591 180.184 24.7159 180.627 24.8295C181.074 24.9432 181.47 25.1193 181.815 25.358C182.163 25.5966 182.438 25.9034 182.638 26.2784C182.839 26.6496 182.94 27.0947 182.94 27.6136V33.5H180.644V32.2898H180.576C180.436 32.5625 180.248 32.803 180.013 33.0114C179.779 33.2159 179.496 33.3769 179.167 33.4943C178.837 33.608 178.457 33.6648 178.025 33.6648ZM178.718 31.9943C179.074 31.9943 179.388 31.9242 179.661 31.7841C179.934 31.6402 180.148 31.447 180.303 31.2045C180.459 30.9621 180.536 30.6875 180.536 30.3807V29.4545C180.46 29.5038 180.356 29.5492 180.224 29.5909C180.095 29.6288 179.949 29.6648 179.786 29.6989C179.623 29.7292 179.46 29.7576 179.298 29.7841C179.135 29.8068 178.987 29.8277 178.854 29.8466C178.57 29.8883 178.322 29.9545 178.11 30.0455C177.898 30.1364 177.733 30.2595 177.616 30.4148C177.498 30.5663 177.44 30.7557 177.44 30.983C177.44 31.3125 177.559 31.5644 177.798 31.7386C178.04 31.9091 178.347 31.9943 178.718 31.9943ZM187.238 21.8636V33.5H184.817V21.8636H187.238ZM191.597 21.8636V33.5H189.177V21.8636H191.597Z" fill="white"/>
</svg>
