<svg width="417" height="84" viewBox="0 0 417 84" fill="none" xmlns="http://www.w3.org/2000/svg">
<path d="M0.954546 6.94318L2.11364 0.0909081H31.6193L30.4602 6.94318H19.875L15.2386 35H6.92045L11.5568 6.94318H0.954546ZM39.3196 20.0682L36.831 35H28.4957L34.2912 0.0909081H42.3537L40.1378 13.625H40.4276C41.2685 12.0114 42.4389 10.75 43.9389 9.84091C45.4389 8.93182 47.1776 8.47727 49.1548 8.47727C50.973 8.47727 52.4957 8.88636 53.723 9.70455C54.9503 10.5114 55.8196 11.6534 56.331 13.1307C56.8423 14.608 56.9332 16.3352 56.6037 18.3125L53.8082 35H45.473L47.9957 19.9489C48.223 18.4943 48.0355 17.358 47.4332 16.5398C46.831 15.7216 45.8651 15.3125 44.5355 15.3125C43.6605 15.3125 42.8537 15.5057 42.1151 15.892C41.3878 16.267 40.7798 16.8068 40.2912 17.5114C39.8026 18.2159 39.4787 19.0682 39.3196 20.0682ZM69.6307 35.4943C66.892 35.4943 64.6193 34.9545 62.8125 33.875C61.017 32.7841 59.7557 31.233 59.0284 29.2216C58.3011 27.1989 58.1705 24.7955 58.6364 22.0114C59.0909 19.3068 60.017 16.9432 61.4148 14.9205C62.8239 12.8864 64.5966 11.3068 66.733 10.1818C68.8693 9.04545 71.25 8.47727 73.875 8.47727C75.7386 8.47727 77.392 8.76705 78.8352 9.34659C80.2784 9.92614 81.4716 10.7898 82.4148 11.9375C83.358 13.0739 84 14.4716 84.3409 16.1307C84.6818 17.7898 84.6705 19.6932 84.3068 21.8409L83.983 23.9205H61.2443L62.0114 19.0795H77.0114C77.1477 18.1932 77.0739 17.4034 76.7898 16.7102C76.5057 16.017 76.0455 15.4773 75.4091 15.0909C74.7841 14.6932 74.017 14.4943 73.108 14.4943C72.1875 14.4943 71.3239 14.7102 70.517 15.142C69.7216 15.5625 69.0455 16.1307 68.4886 16.8466C67.9318 17.5625 67.5682 18.3693 67.3977 19.267L66.4943 24.2273C66.3125 25.3295 66.3636 26.2727 66.6477 27.0568C66.9318 27.8409 67.4205 28.4432 68.1136 28.8636C68.8068 29.2727 69.6989 29.4773 70.7898 29.4773C71.517 29.4773 72.1989 29.3807 72.8352 29.1875C73.4716 28.983 74.0398 28.6818 74.5398 28.2841C75.0511 27.875 75.4659 27.3807 75.7841 26.8011L83.3864 27.0227C82.7727 28.7386 81.8239 30.233 80.5398 31.5057C79.2557 32.767 77.6875 33.75 75.8352 34.4545C73.9943 35.1477 71.9261 35.4943 69.6307 35.4943ZM98.5866 35L96.1321 8.81818H104.501L105.234 25.5909H105.456L112.036 8.81818H120.2L121.291 25.4716H121.513L127.734 8.81818H136.104L124.905 35H115.99L114.422 19.7443H114.132L107.518 35H98.5866ZM145.227 35.4943C142.466 35.4943 140.188 34.9261 138.392 33.7898C136.608 32.6534 135.352 31.0682 134.625 29.0341C133.898 27 133.756 24.6364 134.199 21.9432C134.642 19.2614 135.557 16.9091 136.943 14.8864C138.33 12.8636 140.102 11.2898 142.261 10.1648C144.42 9.03977 146.869 8.47727 149.608 8.47727C152.358 8.47727 154.625 9.04545 156.409 10.1818C158.205 11.3182 159.466 12.9034 160.193 14.9375C160.932 16.9716 161.08 19.3409 160.636 22.0455C160.193 24.7273 159.273 27.0795 157.875 29.1023C156.477 31.1136 154.705 32.6818 152.557 33.8068C150.409 34.9318 147.966 35.4943 145.227 35.4943ZM146.165 29.2045C147.188 29.2045 148.102 28.8977 148.909 28.2841C149.727 27.6705 150.415 26.8125 150.972 25.7102C151.528 24.608 151.926 23.3295 152.165 21.875C152.403 20.4432 152.426 19.1875 152.233 18.108C152.051 17.017 151.665 16.1705 151.074 15.5682C150.483 14.9545 149.682 14.6477 148.67 14.6477C147.648 14.6477 146.727 14.9602 145.909 15.5852C145.091 16.1989 144.403 17.0568 143.847 18.1591C143.301 19.25 142.909 20.5284 142.67 21.9943C142.432 23.4261 142.403 24.6818 142.585 25.7614C142.767 26.8409 143.159 27.6875 143.761 28.3011C144.364 28.9034 145.165 29.2045 146.165 29.2045ZM161.241 35L165.605 8.81818H173.702L172.901 13.5909H173.173C173.935 11.8636 174.929 10.5795 176.156 9.73864C177.384 8.88636 178.713 8.46023 180.145 8.46023C180.531 8.46023 180.918 8.48864 181.304 8.54545C181.702 8.59091 182.077 8.65909 182.429 8.75L181.202 16.0114C180.815 15.8636 180.31 15.7557 179.685 15.6875C179.06 15.608 178.491 15.5682 177.98 15.5682C176.991 15.5682 176.071 15.7898 175.219 16.233C174.378 16.6648 173.662 17.2727 173.071 18.0568C172.491 18.8295 172.111 19.7386 171.929 20.7841L169.577 35H161.241ZM194.075 0.0909081L188.28 35H179.945L185.74 0.0909081H194.075ZM201.614 35.375C199.682 35.375 198.006 34.875 196.585 33.875C195.165 32.875 194.148 31.375 193.534 29.375C192.932 27.375 192.875 24.892 193.364 21.9261C193.875 18.8466 194.784 16.3125 196.091 14.3239C197.398 12.3352 198.92 10.8636 200.659 9.90909C202.409 8.95455 204.193 8.47727 206.011 8.47727C207.386 8.47727 208.523 8.71591 209.42 9.19318C210.33 9.65909 211.04 10.2614 211.551 11C212.063 11.7386 212.415 12.5057 212.608 13.3011H212.795L214.994 0.0909081H223.33L217.534 35H209.284L209.983 30.7557H209.727C209.239 31.5625 208.614 32.3182 207.852 33.0227C207.091 33.7273 206.188 34.2955 205.142 34.7273C204.108 35.1591 202.932 35.375 201.614 35.375ZM205.551 28.8807C206.563 28.8807 207.477 28.5966 208.295 28.0284C209.114 27.4489 209.801 26.6364 210.358 25.5909C210.926 24.5455 211.324 23.3182 211.551 21.9091C211.79 20.4773 211.801 19.2443 211.585 18.2102C211.369 17.1761 210.943 16.3807 210.307 15.8239C209.682 15.267 208.858 14.9886 207.835 14.9886C206.813 14.9886 205.898 15.2727 205.091 15.8409C204.284 16.4091 203.614 17.2102 203.08 18.2443C202.545 19.2784 202.159 20.5 201.92 21.9091C201.693 23.3182 201.67 24.5455 201.852 25.5909C202.045 26.6364 202.449 27.4489 203.062 28.0284C203.688 28.5966 204.517 28.8807 205.551 28.8807ZM255.972 16.8125L248.455 17.017C248.466 16.4602 248.341 15.9716 248.08 15.5511C247.818 15.1193 247.449 14.7841 246.972 14.5455C246.494 14.3068 245.926 14.1875 245.267 14.1875C244.199 14.1875 243.239 14.4261 242.386 14.9034C241.545 15.3807 241.074 16 240.972 16.7614C240.892 17.1705 241.006 17.5284 241.312 17.8352C241.619 18.1307 242.301 18.392 243.358 18.6193L248.267 19.5739C250.79 20.0739 252.619 20.9432 253.756 22.1818C254.903 23.4091 255.312 25.0341 254.983 27.0568C254.688 28.7841 253.926 30.2784 252.699 31.5398C251.483 32.8011 249.932 33.7784 248.045 34.4716C246.17 35.1534 244.097 35.4943 241.824 35.4943C237.983 35.4943 235.085 34.7216 233.131 33.1761C231.188 31.6193 230.278 29.5568 230.403 26.9886L238.517 26.7841C238.551 27.75 238.875 28.4773 239.489 28.9659C240.114 29.4432 240.96 29.6932 242.028 29.7159C243.199 29.7386 244.21 29.4943 245.062 28.983C245.915 28.4716 246.392 27.8409 246.494 27.0909C246.563 26.6023 246.398 26.2216 246 25.9489C245.614 25.6761 244.892 25.4318 243.835 25.2159L239.403 24.3466C236.858 23.858 235.017 22.9375 233.881 21.5852C232.756 20.2216 232.369 18.483 232.722 16.3693C233.017 14.6875 233.71 13.2614 234.801 12.0909C235.903 10.9091 237.341 10.0114 239.114 9.39773C240.898 8.78409 242.932 8.47727 245.216 8.47727C248.875 8.47727 251.636 9.22159 253.5 10.7102C255.375 12.1875 256.199 14.2216 255.972 16.8125ZM267.132 20.0682L264.643 35H256.308L262.104 0.0909081H270.166L267.95 13.625H268.24C269.081 12.0114 270.251 10.75 271.751 9.84091C273.251 8.93182 274.99 8.47727 276.967 8.47727C278.786 8.47727 280.308 8.88636 281.536 9.70455C282.763 10.5114 283.632 11.6534 284.143 13.1307C284.655 14.608 284.746 16.3352 284.416 18.3125L281.621 35H273.286L275.808 19.9489C276.036 18.4943 275.848 17.358 275.246 16.5398C274.643 15.7216 273.678 15.3125 272.348 15.3125C271.473 15.3125 270.666 15.5057 269.928 15.892C269.2 16.267 268.592 16.8068 268.104 17.5114C267.615 18.2159 267.291 19.0682 267.132 20.0682ZM292.585 35.4432C290.926 35.4432 289.494 35.1648 288.29 34.608C287.097 34.0398 286.222 33.1818 285.665 32.0341C285.119 30.8864 284.989 29.4545 285.273 27.7386C285.523 26.2841 285.983 25.0625 286.653 24.0739C287.335 23.0739 288.17 22.2614 289.159 21.6364C290.159 21.0114 291.273 20.5341 292.5 20.2045C293.727 19.875 295.011 19.6534 296.352 19.5398C297.852 19.4034 299.068 19.2557 300 19.0966C300.943 18.9375 301.648 18.7159 302.114 18.4318C302.58 18.1364 302.864 17.7273 302.966 17.2045V17.1193C303.102 16.2443 302.915 15.5682 302.403 15.0909C301.892 14.6136 301.125 14.375 300.102 14.375C299.011 14.375 298.08 14.6136 297.307 15.0909C296.534 15.5682 295.994 16.2273 295.688 17.0682L288.051 16.7955C288.528 15.2045 289.347 13.7841 290.506 12.5341C291.665 11.2727 293.136 10.2841 294.92 9.56818C296.716 8.84091 298.79 8.47727 301.142 8.47727C302.801 8.47727 304.301 8.67614 305.642 9.07386C306.983 9.46023 308.114 10.0284 309.034 10.7784C309.966 11.517 310.631 12.4261 311.028 13.5057C311.426 14.5852 311.511 15.8182 311.284 17.2045L308.301 35H300.46L301.074 31.3523H300.869C300.256 32.2386 299.534 32.9886 298.705 33.6023C297.886 34.2159 296.966 34.6761 295.943 34.983C294.92 35.2898 293.801 35.4432 292.585 35.4432ZM296.097 29.9886C296.972 29.9886 297.801 29.8068 298.585 29.4432C299.369 29.0795 300.028 28.5795 300.562 27.9432C301.108 27.2955 301.455 26.5455 301.602 25.6932L301.994 23.2045C301.756 23.3295 301.455 23.4432 301.091 23.5455C300.727 23.6477 300.341 23.7443 299.932 23.8352C299.523 23.9148 299.102 23.9943 298.67 24.0739C298.25 24.142 297.847 24.2045 297.46 24.2614C296.642 24.3864 295.932 24.5795 295.33 24.8409C294.727 25.1023 294.244 25.4432 293.881 25.8636C293.528 26.2727 293.313 26.7614 293.233 27.3295C293.097 28.1818 293.295 28.8409 293.83 29.3068C294.364 29.7614 295.119 29.9886 296.097 29.9886ZM321.426 35.375C319.494 35.375 317.818 34.875 316.398 33.875C314.977 32.875 313.96 31.375 313.347 29.375C312.744 27.375 312.688 24.892 313.176 21.9261C313.688 18.8466 314.597 16.3125 315.903 14.3239C317.21 12.3352 318.733 10.8636 320.472 9.90909C322.222 8.95455 324.006 8.47727 325.824 8.47727C327.199 8.47727 328.335 8.71591 329.233 9.19318C330.142 9.65909 330.852 10.2614 331.364 11C331.875 11.7386 332.227 12.5057 332.42 13.3011H332.608L334.807 0.0909081H343.142L337.347 35H329.097L329.795 30.7557H329.54C329.051 31.5625 328.426 32.3182 327.665 33.0227C326.903 33.7273 326 34.2955 324.955 34.7273C323.92 35.1591 322.744 35.375 321.426 35.375ZM325.364 28.8807C326.375 28.8807 327.29 28.5966 328.108 28.0284C328.926 27.4489 329.614 26.6364 330.17 25.5909C330.739 24.5455 331.136 23.3182 331.364 21.9091C331.602 20.4773 331.614 19.2443 331.398 18.2102C331.182 17.1761 330.756 16.3807 330.119 15.8239C329.494 15.267 328.67 14.9886 327.648 14.9886C326.625 14.9886 325.71 15.2727 324.903 15.8409C324.097 16.4091 323.426 17.2102 322.892 18.2443C322.358 19.2784 321.972 20.5 321.733 21.9091C321.506 23.3182 321.483 24.5455 321.665 25.5909C321.858 26.6364 322.261 27.4489 322.875 28.0284C323.5 28.5966 324.33 28.8807 325.364 28.8807ZM353.318 35.4943C350.58 35.4943 348.307 34.9545 346.5 33.875C344.705 32.7841 343.443 31.233 342.716 29.2216C341.989 27.1989 341.858 24.7955 342.324 22.0114C342.778 19.3068 343.705 16.9432 345.102 14.9205C346.511 12.8864 348.284 11.3068 350.42 10.1818C352.557 9.04545 354.938 8.47727 357.562 8.47727C359.426 8.47727 361.08 8.76705 362.523 9.34659C363.966 9.92614 365.159 10.7898 366.102 11.9375C367.045 13.0739 367.688 14.4716 368.028 16.1307C368.369 17.7898 368.358 19.6932 367.994 21.8409L367.67 23.9205H344.932L345.699 19.0795H360.699C360.835 18.1932 360.761 17.4034 360.477 16.7102C360.193 16.017 359.733 15.4773 359.097 15.0909C358.472 14.6932 357.705 14.4943 356.795 14.4943C355.875 14.4943 355.011 14.7102 354.205 15.142C353.409 15.5625 352.733 16.1307 352.176 16.8466C351.619 17.5625 351.256 18.3693 351.085 19.267L350.182 24.2273C350 25.3295 350.051 26.2727 350.335 27.0568C350.619 27.8409 351.108 28.4432 351.801 28.8636C352.494 29.2727 353.386 29.4773 354.477 29.4773C355.205 29.4773 355.886 29.3807 356.523 29.1875C357.159 28.983 357.727 28.6818 358.227 28.2841C358.739 27.875 359.153 27.3807 359.472 26.8011L367.074 27.0227C366.46 28.7386 365.511 30.233 364.227 31.5057C362.943 32.767 361.375 33.75 359.523 34.4545C357.682 35.1477 355.614 35.4943 353.318 35.4943ZM394.393 16.8125L386.876 17.017C386.888 16.4602 386.763 15.9716 386.501 15.5511C386.24 15.1193 385.871 14.7841 385.393 14.5455C384.916 14.3068 384.348 14.1875 383.689 14.1875C382.621 14.1875 381.661 14.4261 380.808 14.9034C379.967 15.3807 379.496 16 379.393 16.7614C379.314 17.1705 379.428 17.5284 379.734 17.8352C380.041 18.1307 380.723 18.392 381.78 18.6193L386.689 19.5739C389.212 20.0739 391.041 20.9432 392.178 22.1818C393.325 23.4091 393.734 25.0341 393.405 27.0568C393.109 28.7841 392.348 30.2784 391.121 31.5398C389.905 32.8011 388.354 33.7784 386.467 34.4716C384.592 35.1534 382.518 35.4943 380.246 35.4943C376.405 35.4943 373.507 34.7216 371.553 33.1761C369.609 31.6193 368.7 29.5568 368.825 26.9886L376.939 26.7841C376.973 27.75 377.297 28.4773 377.911 28.9659C378.536 29.4432 379.382 29.6932 380.45 29.7159C381.621 29.7386 382.632 29.4943 383.484 28.983C384.337 28.4716 384.814 27.8409 384.916 27.0909C384.984 26.6023 384.82 26.2216 384.422 25.9489C384.036 25.6761 383.314 25.4318 382.257 25.2159L377.825 24.3466C375.28 23.858 373.439 22.9375 372.303 21.5852C371.178 20.2216 370.791 18.483 371.143 16.3693C371.439 14.6875 372.132 13.2614 373.223 12.0909C374.325 10.9091 375.763 10.0114 377.536 9.39773C379.32 8.78409 381.354 8.47727 383.638 8.47727C387.297 8.47727 390.058 9.22159 391.922 10.7102C393.797 12.1875 394.621 14.2216 394.393 16.8125ZM399.622 35.4943C398.384 35.4943 397.372 35.0625 396.588 34.1989C395.804 33.3352 395.463 32.2898 395.565 31.0625C395.679 29.858 396.213 28.8295 397.168 27.9773C398.122 27.125 399.213 26.6989 400.44 26.6989C401.611 26.6989 402.594 27.125 403.389 27.9773C404.196 28.8295 404.543 29.858 404.429 31.0625C404.361 31.8807 404.082 32.625 403.594 33.2955C403.116 33.9659 402.526 34.5 401.821 34.8977C401.116 35.2955 400.384 35.4943 399.622 35.4943ZM1.51705 48.0909H10.9432L15.8864 62.6989H16.2443L26.0114 48.0909H35.4375L18.8182 71.3409L16.875 83H8.48864L10.4489 71.3409L1.51705 48.0909ZM37.8366 83.4943C35.0753 83.4943 32.7969 82.9261 31.0014 81.7898C29.2173 80.6534 27.9616 79.0682 27.2344 77.0341C26.5071 75 26.3651 72.6364 26.8082 69.9432C27.2514 67.2614 28.1662 64.9091 29.5526 62.8864C30.9389 60.8636 32.7116 59.2898 34.8707 58.1648C37.0298 57.0398 39.4787 56.4773 42.2173 56.4773C44.9673 56.4773 47.2344 57.0455 49.0185 58.1818C50.8139 59.3182 52.0753 60.9034 52.8026 62.9375C53.5412 64.9716 53.6889 67.3409 53.2457 70.0455C52.8026 72.7273 51.8821 75.0795 50.4844 77.1023C49.0866 79.1136 47.3139 80.6818 45.1662 81.8068C43.0185 82.9318 40.5753 83.4943 37.8366 83.4943ZM38.7741 77.2045C39.7969 77.2045 40.7116 76.8977 41.5185 76.2841C42.3366 75.6705 43.0241 74.8125 43.581 73.7102C44.1378 72.608 44.5355 71.3295 44.7741 69.875C45.0128 68.4432 45.0355 67.1875 44.8423 66.108C44.6605 65.017 44.2741 64.1705 43.6832 63.5682C43.0923 62.9545 42.2912 62.6477 41.2798 62.6477C40.2571 62.6477 39.3366 62.9602 38.5185 63.5852C37.7003 64.1989 37.0128 65.0568 36.456 66.1591C35.9105 67.25 35.5185 68.5284 35.2798 69.9943C35.0412 71.4261 35.0128 72.6818 35.1946 73.7614C35.3764 74.8409 35.7685 75.6875 36.3707 76.3011C36.973 76.9034 37.7741 77.2045 38.7741 77.2045ZM72.6179 71.6989L75.1065 56.8182H83.4247L79.0611 83H71.1179L71.919 78.125H71.6463C70.8395 79.7273 69.652 81 68.0838 81.9432C66.5156 82.875 64.7486 83.3409 62.7827 83.3409C60.9986 83.3409 59.4986 82.9318 58.2827 82.1136C57.0668 81.2955 56.2031 80.1534 55.6918 78.6875C55.1918 77.2102 55.1009 75.483 55.419 73.5057L58.2145 56.8182H66.5497L64.044 71.8693C63.8281 73.2898 64.0156 74.4091 64.6065 75.2273C65.2088 76.0455 66.152 76.4545 67.4361 76.4545C68.2656 76.4545 69.044 76.2727 69.7713 75.9091C70.4986 75.5341 71.1122 74.9943 71.6122 74.2898C72.1236 73.5739 72.4588 72.7102 72.6179 71.6989ZM82.8665 83L87.2301 56.8182H95.3267L94.5256 61.5909H94.7983C95.5597 59.8636 96.554 58.5795 97.7812 57.7386C99.0085 56.8864 100.338 56.4602 101.77 56.4602C102.156 56.4602 102.543 56.4886 102.929 56.5455C103.327 56.5909 103.702 56.6591 104.054 56.75L102.827 64.0114C102.44 63.8636 101.935 63.7557 101.31 63.6875C100.685 63.608 100.116 63.5682 99.6051 63.5682C98.6165 63.5682 97.696 63.7898 96.8438 64.233C96.0028 64.6648 95.2869 65.2727 94.696 66.0568C94.1165 66.8295 93.7358 67.7386 93.554 68.7841L91.2017 83H82.8665ZM110.433 83L114.797 56.8182H122.723L121.939 61.625H122.229C123.024 60.0341 124.149 58.7784 125.604 57.858C127.058 56.9375 128.683 56.4773 130.479 56.4773C132.286 56.4773 133.757 56.9432 134.893 57.875C136.041 58.8068 136.661 60.0568 136.751 61.625H137.024C137.774 60.0682 138.933 58.8239 140.501 57.892C142.081 56.9489 143.842 56.4773 145.786 56.4773C148.24 56.4773 150.109 57.2727 151.393 58.8636C152.689 60.4432 153.104 62.6136 152.638 65.375L149.706 83H141.388L144.047 67.2841C144.229 65.9773 144.036 64.983 143.467 64.3011C142.911 63.608 142.098 63.2614 141.03 63.2614C139.882 63.2614 138.922 63.6307 138.149 64.3693C137.388 65.108 136.916 66.108 136.734 67.3693L134.092 83H126.064L128.74 67.1989C128.911 65.983 128.723 65.0227 128.178 64.3182C127.643 63.6136 126.831 63.2614 125.74 63.2614C125.024 63.2614 124.359 63.4375 123.746 63.7898C123.132 64.1307 122.615 64.6193 122.195 65.2557C121.786 65.892 121.518 66.642 121.393 67.5057L118.768 83H110.433ZM172.087 71.6989L174.575 56.8182H182.893L178.53 83H170.587L171.388 78.125H171.115C170.308 79.7273 169.121 81 167.553 81.9432C165.984 82.875 164.217 83.3409 162.251 83.3409C160.467 83.3409 158.967 82.9318 157.751 82.1136C156.536 81.2955 155.672 80.1534 155.161 78.6875C154.661 77.2102 154.57 75.483 154.888 73.5057L157.683 56.8182H166.018L163.513 71.8693C163.297 73.2898 163.484 74.4091 164.075 75.2273C164.678 76.0455 165.621 76.4545 166.905 76.4545C167.734 76.4545 168.513 76.2727 169.24 75.9091C169.967 75.5341 170.581 74.9943 171.081 74.2898C171.592 73.5739 171.928 72.7102 172.087 71.6989ZM208.159 64.8125L200.642 65.017C200.653 64.4602 200.528 63.9716 200.267 63.5511C200.006 63.1193 199.636 62.7841 199.159 62.5455C198.682 62.3068 198.114 62.1875 197.455 62.1875C196.386 62.1875 195.426 62.4261 194.574 62.9034C193.733 63.3807 193.261 64 193.159 64.7614C193.08 65.1705 193.193 65.5284 193.5 65.8352C193.807 66.1307 194.489 66.392 195.545 66.6193L200.455 67.5739C202.977 68.0739 204.807 68.9432 205.943 70.1818C207.091 71.4091 207.5 73.0341 207.17 75.0568C206.875 76.7841 206.114 78.2784 204.886 79.5398C203.67 80.8011 202.119 81.7784 200.233 82.4716C198.358 83.1534 196.284 83.4943 194.011 83.4943C190.17 83.4943 187.273 82.7216 185.318 81.1761C183.375 79.6193 182.466 77.5568 182.591 74.9886L190.705 74.7841C190.739 75.75 191.062 76.4773 191.676 76.9659C192.301 77.4432 193.148 77.6932 194.216 77.7159C195.386 77.7386 196.398 77.4943 197.25 76.983C198.102 76.4716 198.58 75.8409 198.682 75.0909C198.75 74.6023 198.585 74.2216 198.188 73.9489C197.801 73.6761 197.08 73.4318 196.023 73.2159L191.591 72.3466C189.045 71.858 187.205 70.9375 186.068 69.5852C184.943 68.2216 184.557 66.483 184.909 64.3693C185.205 62.6875 185.898 61.2614 186.989 60.0909C188.091 58.9091 189.528 58.0114 191.301 57.3977C193.085 56.7841 195.119 56.4773 197.403 56.4773C201.063 56.4773 203.824 57.2216 205.688 58.7102C207.562 60.1875 208.386 62.2216 208.159 64.8125ZM208.445 83L212.808 56.8182H221.143L216.78 83H208.445ZM217.564 53.75C216.382 53.75 215.422 53.358 214.683 52.5739C213.945 51.7898 213.655 50.8523 213.814 49.7614C213.973 48.6591 214.53 47.7216 215.484 46.9489C216.439 46.1761 217.501 45.7898 218.672 45.7898C219.854 45.7898 220.803 46.1761 221.518 46.9489C222.246 47.7216 222.53 48.6591 222.371 49.7614C222.234 50.8523 221.689 51.7898 220.734 52.5739C219.791 53.358 218.734 53.75 217.564 53.75ZM232.739 83.4943C229.977 83.4943 227.699 82.9261 225.903 81.7898C224.119 80.6534 222.869 79.0739 222.153 77.0511C221.438 75.017 221.307 72.6648 221.761 69.9943C222.193 67.3125 223.108 64.9602 224.506 62.9375C225.903 60.9034 227.688 59.3182 229.858 58.1818C232.028 57.0455 234.483 56.4773 237.222 56.4773C239.642 56.4773 241.676 56.9148 243.324 57.7898C244.983 58.6648 246.182 59.9034 246.92 61.5057C247.67 63.0966 247.892 64.9659 247.585 67.1136H239.795C239.864 65.7841 239.591 64.7386 238.977 63.9773C238.364 63.2045 237.472 62.8182 236.301 62.8182C235.313 62.8182 234.403 63.0909 233.574 63.6364C232.756 64.1705 232.057 64.9659 231.477 66.0227C230.909 67.0682 230.5 68.3636 230.25 69.9091C230 71.4545 229.983 72.7614 230.199 73.8295C230.426 74.8864 230.852 75.6875 231.477 76.233C232.114 76.767 232.92 77.0341 233.898 77.0341C234.67 77.0341 235.386 76.8693 236.045 76.5398C236.705 76.2102 237.278 75.7273 237.767 75.0909C238.256 74.4432 238.636 73.6591 238.909 72.7386H246.682C246.239 74.9091 245.381 76.8011 244.108 78.4148C242.847 80.017 241.25 81.267 239.318 82.1648C237.386 83.0511 235.193 83.4943 232.739 83.4943ZM282.362 64.8125L274.845 65.017C274.857 64.4602 274.732 63.9716 274.47 63.5511C274.209 63.1193 273.839 62.7841 273.362 62.5455C272.885 62.3068 272.317 62.1875 271.658 62.1875C270.589 62.1875 269.629 62.4261 268.777 62.9034C267.936 63.3807 267.464 64 267.362 64.7614C267.283 65.1705 267.396 65.5284 267.703 65.8352C268.01 66.1307 268.692 66.392 269.749 66.6193L274.658 67.5739C277.18 68.0739 279.01 68.9432 280.146 70.1818C281.294 71.4091 281.703 73.0341 281.374 75.0568C281.078 76.7841 280.317 78.2784 279.089 79.5398C277.874 80.8011 276.322 81.7784 274.436 82.4716C272.561 83.1534 270.487 83.4943 268.214 83.4943C264.374 83.4943 261.476 82.7216 259.521 81.1761C257.578 79.6193 256.669 77.5568 256.794 74.9886L264.908 74.7841C264.942 75.75 265.266 76.4773 265.879 76.9659C266.504 77.4432 267.351 77.6932 268.419 77.7159C269.589 77.7386 270.601 77.4943 271.453 76.983C272.305 76.4716 272.783 75.8409 272.885 75.0909C272.953 74.6023 272.788 74.2216 272.391 73.9489C272.004 73.6761 271.283 73.4318 270.226 73.2159L265.794 72.3466C263.249 71.858 261.408 70.9375 260.271 69.5852C259.146 68.2216 258.76 66.483 259.112 64.3693C259.408 62.6875 260.101 61.2614 261.192 60.0909C262.294 58.9091 263.732 58.0114 265.504 57.3977C267.288 56.7841 269.322 56.4773 271.607 56.4773C275.266 56.4773 278.027 57.2216 279.891 58.7102C281.766 60.1875 282.589 62.2216 282.362 64.8125ZM293.523 68.0682L291.034 83H282.699L288.494 48.0909H296.557L294.341 61.625H294.631C295.472 60.0114 296.642 58.75 298.142 57.8409C299.642 56.9318 301.381 56.4773 303.358 56.4773C305.176 56.4773 306.699 56.8864 307.926 57.7045C309.153 58.5114 310.023 59.6534 310.534 61.1307C311.045 62.608 311.136 64.3352 310.807 66.3125L308.011 83H299.676L302.199 67.9489C302.426 66.4943 302.239 65.358 301.636 64.5398C301.034 63.7216 300.068 63.3125 298.739 63.3125C297.864 63.3125 297.057 63.5057 296.318 63.892C295.591 64.267 294.983 64.8068 294.494 65.5114C294.006 66.2159 293.682 67.0682 293.523 68.0682ZM311.663 83L316.027 56.8182H324.362L319.999 83H311.663ZM320.783 53.75C319.601 53.75 318.641 53.358 317.902 52.5739C317.163 51.7898 316.874 50.8523 317.033 49.7614C317.192 48.6591 317.749 47.7216 318.703 46.9489C319.658 46.1761 320.72 45.7898 321.891 45.7898C323.072 45.7898 324.021 46.1761 324.737 46.9489C325.464 47.7216 325.749 48.6591 325.589 49.7614C325.453 50.8523 324.908 51.7898 323.953 52.5739C323.01 53.358 321.953 53.75 320.783 53.75ZM334.679 68.0682L332.19 83H323.855L328.219 56.8182H336.145L335.361 61.625H335.651C336.469 60.0227 337.656 58.767 339.213 57.858C340.77 56.9375 342.52 56.4773 344.463 56.4773C346.293 56.4773 347.821 56.8864 349.048 57.7045C350.276 58.5227 351.145 59.6705 351.656 61.1477C352.168 62.6136 352.253 64.3352 351.912 66.3125L349.116 83H340.781L343.287 67.9489C343.537 66.5057 343.361 65.375 342.759 64.5568C342.168 63.7273 341.202 63.3125 339.861 63.3125C338.986 63.3125 338.185 63.5057 337.457 63.892C336.741 64.267 336.139 64.8068 335.651 65.5114C335.173 66.2159 334.849 67.0682 334.679 68.0682ZM364.896 83.4943C362.158 83.4943 359.885 82.9545 358.078 81.875C356.283 80.7841 355.021 79.233 354.294 77.2216C353.567 75.1989 353.436 72.7955 353.902 70.0114C354.357 67.3068 355.283 64.9432 356.68 62.9205C358.089 60.8864 359.862 59.3068 361.999 58.1818C364.135 57.0455 366.516 56.4773 369.141 56.4773C371.004 56.4773 372.658 56.767 374.101 57.3466C375.544 57.9261 376.737 58.7898 377.68 59.9375C378.624 61.0739 379.266 62.4716 379.607 64.1307C379.947 65.7898 379.936 67.6932 379.572 69.8409L379.249 71.9205H356.51L357.277 67.0795H372.277C372.413 66.1932 372.339 65.4034 372.055 64.7102C371.771 64.017 371.311 63.4773 370.675 63.0909C370.05 62.6932 369.283 62.4943 368.374 62.4943C367.453 62.4943 366.589 62.7102 365.783 63.142C364.987 63.5625 364.311 64.1307 363.754 64.8466C363.197 65.5625 362.834 66.3693 362.663 67.267L361.76 72.2273C361.578 73.3295 361.629 74.2727 361.913 75.0568C362.197 75.8409 362.686 76.4432 363.379 76.8636C364.072 77.2727 364.964 77.4773 366.055 77.4773C366.783 77.4773 367.464 77.3807 368.101 77.1875C368.737 76.983 369.305 76.6818 369.805 76.2841C370.317 75.875 370.732 75.3807 371.05 74.8011L378.652 75.0227C378.038 76.7386 377.089 78.233 375.805 79.5057C374.521 80.767 372.953 81.75 371.101 82.4545C369.26 83.1477 367.192 83.4943 364.896 83.4943ZM405.972 64.8125L398.455 65.017C398.466 64.4602 398.341 63.9716 398.08 63.5511C397.818 63.1193 397.449 62.7841 396.972 62.5455C396.494 62.3068 395.926 62.1875 395.267 62.1875C394.199 62.1875 393.239 62.4261 392.386 62.9034C391.545 63.3807 391.074 64 390.972 64.7614C390.892 65.1705 391.006 65.5284 391.312 65.8352C391.619 66.1307 392.301 66.392 393.358 66.6193L398.267 67.5739C400.79 68.0739 402.619 68.9432 403.756 70.1818C404.903 71.4091 405.312 73.0341 404.983 75.0568C404.688 76.7841 403.926 78.2784 402.699 79.5398C401.483 80.8011 399.932 81.7784 398.045 82.4716C396.17 83.1534 394.097 83.4943 391.824 83.4943C387.983 83.4943 385.085 82.7216 383.131 81.1761C381.188 79.6193 380.278 77.5568 380.403 74.9886L388.517 74.7841C388.551 75.75 388.875 76.4773 389.489 76.9659C390.114 77.4432 390.96 77.6932 392.028 77.7159C393.199 77.7386 394.21 77.4943 395.062 76.983C395.915 76.4716 396.392 75.8409 396.494 75.0909C396.563 74.6023 396.398 74.2216 396 73.9489C395.614 73.6761 394.892 73.4318 393.835 73.2159L389.403 72.3466C386.858 71.858 385.017 70.9375 383.881 69.5852C382.756 68.2216 382.369 66.483 382.722 64.3693C383.017 62.6875 383.71 61.2614 384.801 60.0909C385.903 58.9091 387.341 58.0114 389.114 57.3977C390.898 56.7841 392.932 56.4773 395.216 56.4773C398.875 56.4773 401.636 57.2216 403.5 58.7102C405.375 60.1875 406.199 62.2216 405.972 64.8125ZM411.2 83.4943C409.962 83.4943 408.95 83.0625 408.166 82.1989C407.382 81.3352 407.041 80.2898 407.143 79.0625C407.257 77.858 407.791 76.8295 408.746 75.9773C409.7 75.125 410.791 74.6989 412.018 74.6989C413.189 74.6989 414.172 75.125 414.967 75.9773C415.774 76.8295 416.121 77.858 416.007 79.0625C415.939 79.8807 415.661 80.625 415.172 81.2955C414.695 81.9659 414.104 82.5 413.399 82.8977C412.695 83.2955 411.962 83.4943 411.2 83.4943Z" fill="#292929"/>
</svg>
